<svg width="661" height="502" viewBox="0 0 661 502" fill="none" xmlns="http://www.w3.org/2000/svg">
<g clip-path="url(#clip0_2_16)">
<path d="M135.398 490.32L145.603 490.319L150.458 449.906L135.396 449.907L135.398 490.32Z" fill="#9E616A"/>
<path d="M132.796 486.899L135.668 486.899L146.882 482.216L152.892 486.898H152.893C156.289 486.898 159.547 488.284 161.949 490.75C164.35 493.216 165.7 496.56 165.7 500.048V500.475L132.796 500.476L132.796 486.899Z" fill="#2F2E41"/>
<path d="M182.807 490.32L193.012 490.319L197.867 449.906L182.805 449.907L182.807 490.32Z" fill="#9E616A"/>
<path d="M180.204 486.899L183.076 486.899L194.29 482.216L200.301 486.898H200.301C203.698 486.898 206.955 488.284 209.357 490.75C211.759 493.216 213.108 496.56 213.108 500.048V500.475L180.205 500.476L180.204 486.899Z" fill="#2F2E41"/>
<path d="M190.964 269.156L110.788 271.303L112.182 311.39C112.182 311.39 110.788 322.128 113.577 324.991C116.365 327.855 117.76 327.855 116.365 332.866C114.971 337.876 122.338 346.061 121.443 346.979C120.548 347.898 118.457 352.909 118.457 352.909L125.429 393.712C125.429 393.712 130.309 464.58 131.703 466.012C133.098 467.444 134.492 466.012 133.098 469.591C131.703 473.17 130.309 471.739 131.703 473.17C132.938 474.538 134.102 475.972 135.189 477.465H152.045C152.045 477.465 153.316 470.307 153.316 469.591C153.316 468.875 154.71 464.58 154.71 463.865C154.71 463.149 153.478 461.883 153.478 461.883C153.052 460.428 152.764 458.934 152.619 457.422C152.619 455.99 148.436 400.87 148.436 400.87L156.802 329.286L177.02 399.439C177.02 399.439 177.02 461.001 178.415 462.433C179.809 463.865 179.809 463.149 179.112 466.012C178.415 468.875 175.626 468.16 177.718 470.307C179.809 472.455 180.506 468.875 179.809 472.455L179.112 476.034L200.027 476.341C200.027 476.341 202.816 470.307 201.422 468.16C200.027 466.012 200.111 466.598 201.812 463.084C203.513 459.569 204.211 458.854 203.513 458.138C202.816 457.422 202.816 453.614 202.816 453.614L199.33 385.122C199.33 385.122 198.633 312.822 198.633 310.675C198.581 309.569 198.779 308.467 199.212 307.454V304.539L196.542 294.21L190.964 269.156Z" fill="#2F2E41"/>
<path d="M281.699 113.029C281.314 114.129 280.698 115.128 279.896 115.957C279.094 116.786 278.124 117.424 277.056 117.827C275.987 118.23 274.846 118.387 273.712 118.288C272.578 118.189 271.479 117.835 270.492 117.253L235.689 147.19L233.798 132.556L267.838 105.801C268.901 104.164 270.512 102.984 272.366 102.485C274.219 101.986 276.187 102.203 277.895 103.094C279.604 103.985 280.935 105.488 281.636 107.319C282.337 109.15 282.359 111.182 281.699 113.029Z" fill="#9E616A"/>
<path d="M128.238 125.384C140.174 125.384 149.85 115.449 149.85 103.193C149.85 90.9376 140.174 81.0023 128.238 81.0023C116.301 81.0023 106.625 90.9376 106.625 103.193C106.625 115.449 116.301 125.384 128.238 125.384Z" fill="#9E616A"/>
<path d="M145.759 81.1085C143.747 76.1844 135.124 73.2608 121.479 73.7011C107.834 74.1414 105.444 90.8486 105.444 90.8486C97.9289 98.041 110.063 120.497 112.168 117.401C114.273 114.305 117.807 117.232 117.807 117.232L114.439 97.779C117.996 99.1841 121.821 100.127 125.167 98.4906L119.624 95.4471C124.218 96.0341 128.812 96.6211 133.407 97.2081L127.723 92.7183C127.86 92.6716 127.998 92.623 128.136 92.5754C130.415 93.5845 132.857 94.1536 135.337 94.2541C138.235 94.2319 141.314 92.8377 142.529 90.136C142.852 89.3941 143.026 88.5933 143.043 87.7809C147.039 89.1129 149.137 93.9189 149.137 93.9189C148.378 89.5555 147.248 85.2689 145.759 81.1085Z" fill="#2F2E41"/>
<path d="M145.538 126.377C140.711 126.377 137.603 127.061 130.093 128.359C116.231 130.758 124.533 144.281 124.533 144.281C124.533 144.281 125.16 143.954 123.461 144.281C121.762 144.608 115.971 149.752 115.971 149.752L105.613 159.198C90.0042 171.775 93.4985 191.399 93.4985 191.399L116.26 214.919L106.289 262.107C106.289 262.107 110.526 269.114 108.335 272.256C106.144 275.398 127.641 274.496 127.641 274.496C142.478 281.285 194.748 275.546 194.748 275.546C194.024 273.604 187.026 258.548 187.026 258.548C190.067 253.157 187.171 245.366 187.171 245.366C187.171 245.366 184.149 208.516 182.219 203.422C180.288 198.327 187.161 170.725 191.679 171.022C196.196 171.319 225.377 156.036 225.377 156.036C225.377 156.036 224.644 154.837 234.277 150.793C239.811 148.561 244.884 145.275 249.23 141.11L253.188 132.992C251.286 133.746 244.867 121.317 244.867 121.317L242.067 122.412L240.446 121.931C240.446 121.931 227.791 125.628 225.204 128.324C222.617 131.02 221.748 130.267 219.412 130.871C217.076 131.476 216.786 133.161 216.053 132.972C215.319 132.784 214.016 135.064 212.993 134.766C211.969 134.469 209.778 135.668 208.32 135.966C206.863 136.263 196.505 140.763 196.505 140.763C190.096 137.433 172.72 138.78 172.72 138.78C172.72 138.78 167.035 135.341 165.423 138.78C164.989 139.758 164.293 140.587 163.415 141.172C162.538 141.757 161.516 142.072 160.471 142.081L153.54 139.038C153.137 140.548 145.577 124.812 145.538 126.377Z" fill="#FF8787"/>
<path d="M112.448 311.057C111.691 310.184 111.129 309.152 110.803 308.032C110.477 306.913 110.394 305.733 110.559 304.577C110.725 303.421 111.136 302.316 111.762 301.341C112.389 300.365 113.216 299.542 114.185 298.93L104.366 259.297L117.791 264.579L125.252 302.005C126.145 303.746 126.385 305.762 125.927 307.673C125.469 309.583 124.344 311.255 122.766 312.37C121.188 313.486 119.266 313.969 117.364 313.727C115.462 313.485 113.713 312.535 112.448 311.057Z" fill="#9E616A"/>
<path d="M94.3769 183.862L93.1643 199.689C93.1643 199.689 91.6569 217.077 92.0516 220.292C92.4463 223.508 93.1813 243.143 93.1813 243.143L105.96 269.099L120.44 265.135L119.573 252.958L120.44 264.144L122.371 254.233L117.544 237.383L120.44 231.437L118.98 211.474L94.3769 183.862Z" fill="#FF8787"/>
<path d="M437.194 146.873L441.974 147.925C442.005 145.872 442.254 143.828 442.717 141.831C443.152 144.277 444.068 146.607 445.409 148.677L472.825 154.689L499.147 126.167C499.188 111.907 491.475 101.069 477.646 101.069C476.812 101.069 475.949 101.11 475.075 101.193C467.603 99.9089 459.938 101.652 453.693 106.054C447.448 110.457 443.11 117.175 441.592 124.796C431.791 134.705 435.346 140.531 437.194 146.873Z" fill="#2F2E41"/>
<path d="M423.714 480.423H413.77L409.039 441.037H423.716L423.714 480.423Z" fill="#FFB6B6"/>
<path d="M428.163 499.812H421.106L419.847 492.971L416.621 499.812H397.904C397.007 499.812 396.134 499.517 395.411 498.971C394.688 498.425 394.155 497.657 393.888 496.777C393.621 495.898 393.634 494.954 393.927 494.083C394.219 493.212 394.775 492.46 395.514 491.937L410.46 481.338V474.422L426.181 475.386L428.163 499.812Z" fill="#2F2E41"/>
<path d="M540.225 469.308L531.575 474.347L508.53 442.488L521.296 435.052L540.225 469.308Z" fill="#FFB6B6"/>
<path d="M553.413 483.917L547.275 487.493L542.892 482.182L543.374 489.766L527.095 499.25C526.315 499.704 525.414 499.891 524.523 499.782C523.632 499.674 522.798 499.275 522.143 498.646C521.488 498.016 521.047 497.188 520.882 496.283C520.718 495.377 520.841 494.441 521.231 493.612L529.137 476.82L525.813 470.805L539.949 463.677L553.413 483.917Z" fill="#2F2E41"/>
<path d="M386.954 153.773C388.229 153.962 389.447 154.436 390.524 155.161C391.601 155.886 392.509 156.845 393.186 157.97C393.863 159.094 394.291 160.358 394.441 161.671C394.591 162.984 394.459 164.315 394.053 165.57L409.271 179.094L403.523 190.594L382.293 171.185C380.285 170.346 378.646 168.78 377.688 166.784C376.729 164.788 376.517 162.499 377.091 160.353C377.666 158.207 378.987 156.352 380.805 155.139C382.623 153.926 384.811 153.44 386.954 153.773Z" fill="#FFB6B6"/>
<path d="M400.109 195.865L389.931 179.239L401.248 167.359L409.286 177.401L419.242 181.962L432.907 190.511C435.624 187.227 456.561 162.531 465.904 169.641C467.025 170.427 467.968 171.452 468.667 172.646C469.366 173.841 469.805 175.177 469.954 176.562C470.614 183.174 464.843 189.899 464.624 190.148L452.283 207.241C451.899 208.315 447.815 219.384 441.443 222.362C440.538 222.807 439.553 223.054 438.551 223.087C437.548 223.121 436.549 222.94 435.618 222.557C418.733 215.798 407.356 208.174 402.279 200.28C401.381 198.906 400.652 197.423 400.109 195.865Z" fill="#2F2E41"/>
<path d="M437.772 230.567C437.772 230.567 408.53 278.391 413.828 283.831C419.125 289.27 427.369 290.698 427.369 290.698L445.614 266.424L437.772 230.567Z" fill="#2F2E41"/>
<path d="M463.626 165.251L449.844 174.824C443.439 179.273 438.621 185.745 436.121 193.26C433.622 200.774 433.577 208.921 435.994 216.464L439.874 228.572L463.626 165.251Z" fill="#2F2E41"/>
<path d="M487.995 295.797L489.838 302.386L496.125 381.846L527.536 441.952L512.544 452.947L469.711 395.773L452.77 339.003L426.163 464.675L406.175 463.209L420.057 288.967L446.401 239.923L487.995 295.797Z" fill="#2F2E41"/>
<path d="M465.97 167.658L446.788 183.754C442.579 187.286 439.547 192.079 438.117 197.465C437.467 199.91 437.159 202.438 437.2 204.972L437.772 239.923L420.185 288.182C420.185 288.182 467.864 306.676 474.221 290.358C480.578 274.04 465.97 167.658 465.97 167.658Z" fill="#FF8787"/>
<path d="M439.257 274.04L436.078 260.985L436.854 228.503C436.916 226.616 446.714 197.241 459.063 166.038L469.686 155.131L475.413 151.305L488.019 163.253C488.019 163.253 486.416 195.957 486.936 229.436C487.079 238.699 485.493 249.517 484.816 257.721L490.609 284.147V298.856L490.232 298.934C489.856 299.013 484.051 298.829 460.233 298.829C440.498 298.829 453.636 284.462 439.257 274.04Z" fill="#2F2E41"/>
<path opacity="0.2" d="M482.676 192.419L485.572 210.975L465.969 219.278L482.676 192.419Z" fill="black"/>
<path d="M462.929 147.824C473.529 147.824 482.121 139.001 482.121 128.118C482.121 117.235 473.529 108.412 462.929 108.412C452.33 108.412 443.737 117.235 443.737 128.118C443.737 139.001 452.33 147.824 462.929 147.824Z" fill="#FFB6B6"/>
<path opacity="0.2" d="M495.087 228.102C489.979 234.174 483.051 238.332 475.391 239.922C467.731 241.512 459.774 240.443 452.77 236.884L448.593 234.762L495.087 228.102Z" fill="black"/>
<path d="M428.304 223.566C429.16 222.578 430.216 221.795 431.399 221.272C432.582 220.749 433.861 220.499 435.149 220.539C436.436 220.579 437.698 220.908 438.848 221.503C439.998 222.099 441.006 222.945 441.803 223.984L461.181 218.399L467.359 229.662L439.886 237.155C438.097 238.413 435.922 238.954 433.771 238.675C431.62 238.397 429.644 237.317 428.216 235.642C426.788 233.967 426.009 231.813 426.025 229.587C426.041 227.361 426.852 225.219 428.304 223.566V223.566Z" fill="#FFB6B6"/>
<path d="M469.762 235.491L450.64 235.05L447.222 218.806L459.813 217.454L469.006 211.437L483.484 204.44C482.313 200.302 473.78 168.754 484.707 164.668C485.963 164.14 487.316 163.897 488.672 163.956C490.029 164.016 491.356 164.376 492.564 165.012C498.301 168.09 500.586 176.74 500.668 177.065L507.759 197.059C508.42 197.979 515.165 207.578 514.074 214.678C513.937 215.699 513.595 216.679 513.069 217.557C512.544 218.434 511.847 219.19 511.022 219.777C496.224 230.519 483.759 236.066 474.546 236.065C472.934 236.077 471.327 235.884 469.762 235.491Z" fill="#2F2E41"/>
<path d="M439.915 115.155C441.452 117.207 446.744 119.021 453.031 120.486C453.021 120.352 453.021 120.218 453.021 120.084C453.052 118.03 453.302 115.987 453.764 113.989C454.199 116.436 455.115 118.765 456.456 120.836C456.556 120.991 456.656 121.146 456.767 121.3C462.16 122.393 467.864 123.239 472.333 123.806C469.26 135.169 457.48 144.491 458.755 151.4L493.273 158.638C493.06 155.767 493.284 152.88 493.935 150.08C494.596 153.776 496.341 157.176 498.937 159.824L501.869 160.443L502.743 156.019C510.315 137.345 499.76 118.227 482.466 108.339C479.383 103.593 474.595 100.293 469.15 99.1614L464.841 98.254C462.124 97.6831 459.323 97.6674 456.6 98.2078C453.877 98.7482 451.284 99.8341 448.969 101.403C446.654 102.973 444.664 104.995 443.11 107.354C441.557 109.714 440.471 112.364 439.915 115.155Z" fill="#2F2E41"/>
<path d="M16.4972 475.83L16.0322 465.094C11.1846 462.433 5.77766 461.028 0.281006 461C7.84604 467.35 6.90063 479.592 12.0295 488.132C13.649 490.783 15.8288 493.025 18.4073 494.694C20.9858 496.362 23.8968 497.413 26.9248 497.77L33.2555 501.749C34.1242 496.777 33.9326 491.67 32.6941 486.781C31.4556 481.892 29.1995 477.337 26.0813 473.43C24.3109 471.255 22.2808 469.319 20.039 467.665C18.5227 471.77 16.4972 475.83 16.4972 475.83Z" fill="#F2F2F2"/>
<path d="M1.14944 502H659.851C660.155 501.999 660.447 501.874 660.661 501.653C660.876 501.432 660.997 501.132 660.997 500.82C660.997 500.507 660.876 500.208 660.661 499.987C660.447 499.765 660.155 499.641 659.851 499.64H1.14944C0.84519 499.641 0.55372 499.765 0.338892 499.987C0.124063 500.208 0.00341797 500.507 0.00341797 500.82C0.00341797 501.132 0.124063 501.432 0.338892 501.653C0.55372 501.874 0.84519 501.999 1.14944 502Z" fill="#CACACA"/>
<path d="M358.493 67.4502C360.881 78.2235 362.016 90.4373 355.646 100.078C352.938 104.214 348.965 107.305 344.354 108.861C339.687 110.282 334.766 110.592 329.965 109.769C319.1 108.223 309.444 102.412 298.759 100.156C294.043 99.1609 289.039 98.8318 284.5 100.748C281.098 102.183 277.516 105.07 277.5 109.187C277.483 113.415 281.059 116.221 284.616 117.521C289.362 119.256 294.294 118.584 299.217 118.366C304.519 118.13 309.925 118.622 314.33 121.956C318.118 124.992 321.023 129.036 322.729 133.649C324.943 139.166 325.842 145.097 327.257 150.853C328.523 156.028 330.312 161.052 332.597 165.844C337.081 175.236 343.367 183.602 351.077 190.439C354.88 193.799 359.5 197.222 364.693 197.53C368.699 197.767 373.568 196.039 375.112 191.873C375.685 190.075 375.629 188.127 374.953 186.366C374.277 184.606 373.023 183.143 371.408 182.231C367.975 180.452 364.237 182.989 363.128 186.472C362.838 187.274 362.736 188.136 362.832 188.987C362.927 189.838 363.218 190.653 363.679 191.367C364.72 192.96 362.213 194.451 361.179 192.868C358.778 189.192 360.033 184.249 362.973 181.305C364.407 179.804 366.324 178.89 368.367 178.733C370.41 178.577 372.438 179.189 374.073 180.456C375.772 181.784 377.056 183.592 377.768 185.659C378.48 187.726 378.589 189.962 378.082 192.091C376.847 196.667 372.468 199.577 368.095 200.298C362.695 201.189 357.498 199.01 353.139 195.862C348.766 192.62 344.789 188.849 341.296 184.629C334.194 176.243 328.855 166.441 325.613 155.838C322.426 145.35 322.194 131.496 312.723 124.414C307.849 120.769 301.878 121.173 296.163 121.508C291.119 121.803 286.198 121.75 281.571 119.405C277.75 117.469 274.667 113.895 274.603 109.343C274.539 104.747 277.717 101.051 281.462 98.957C291.354 93.4253 303.233 97.8866 312.951 101.582C322.724 105.299 333.883 109.661 344.269 105.75C349.062 103.837 352.922 100.051 355.001 95.2211C357.516 89.7448 357.874 83.5311 357.293 77.5879C356.95 74.4415 356.418 71.3197 355.7 68.2407C355.287 66.3776 358.079 65.5822 358.493 67.4502V67.4502Z" fill="#3F3D56"/>
<path d="M340.742 37.2286C343.606 47.0456 347.923 56.3521 353.542 64.8216C354.932 66.903 356.393 68.9315 357.925 70.9071C359.115 68.6857 360.557 66.6165 362.22 64.7423C368.06 58.1513 375.889 53.8399 383.486 49.5186C391.083 45.1972 398.795 40.5588 404.162 33.5515C406.571 30.3972 408.295 26.7511 409.221 22.8572C410.437 17.5745 409.974 12.0638 406.972 7.65332C402.608 1.24072 393.911 -1.01905 386.517 0.834356C379.113 2.68777 372.916 7.97047 368.109 14.0362C369.682 6.58289 362.027 -0.612694 354.623 0.0414506C347.22 0.705506 341.283 7.34606 339.314 14.7002C337.335 22.0445 338.619 29.9141 340.742 37.2286Z" fill="#FF8787"/>
<g opacity="0.2">
<path d="M353.542 64.8215C354.932 66.9029 356.393 68.9314 357.925 70.9071C359.115 68.6857 360.557 66.6164 362.22 64.7423C368.06 58.1513 375.889 53.8398 383.486 49.5185C391.083 45.1972 398.795 40.5587 404.162 33.5514C406.571 30.3971 408.295 26.751 409.221 22.8572C392.143 25.2881 376.45 33.8357 364.913 46.9911C360.295 52.3319 356.463 58.3393 353.542 64.8215Z" fill="black"/>
</g>
</g>
<defs>
<clipPath id="clip0_2_16">
<rect width="661" height="502" fill="white"/>
</clipPath>
</defs>
</svg>
