<svg width="291" height="85" viewBox="0 0 291 85" fill="none" xmlns="http://www.w3.org/2000/svg">
<path d="M73.8 58V29.2H78.68L88.2 48.32L97.72 29.2H102.6V58H97.52V40.8L89.16 58H87.24L78.88 40.8V58H73.8ZM114.214 58.6C112.667 58.6 111.354 58.3067 110.274 57.72C109.207 57.12 108.394 56.3267 107.834 55.34C107.287 54.34 107.014 53.24 107.014 52.04C107.014 51.04 107.167 50.1267 107.474 49.3C107.781 48.4733 108.274 47.7467 108.954 47.12C109.647 46.48 110.574 45.9467 111.734 45.52C112.534 45.2267 113.487 44.9667 114.594 44.74C115.701 44.5133 116.954 44.3 118.354 44.1C119.754 43.8867 121.294 43.6533 122.974 43.4L121.014 44.48C121.014 43.2 120.707 42.26 120.094 41.66C119.481 41.06 118.454 40.76 117.014 40.76C116.214 40.76 115.381 40.9533 114.514 41.34C113.647 41.7267 113.041 42.4133 112.694 43.4L107.774 41.84C108.321 40.0533 109.347 38.6 110.854 37.48C112.361 36.36 114.414 35.8 117.014 35.8C118.921 35.8 120.614 36.0933 122.094 36.68C123.574 37.2667 124.694 38.28 125.454 39.72C125.881 40.52 126.134 41.32 126.214 42.12C126.294 42.92 126.334 43.8133 126.334 44.8V58H121.574V53.56L122.254 54.48C121.201 55.9333 120.061 56.9867 118.834 57.64C117.621 58.28 116.081 58.6 114.214 58.6ZM115.374 54.32C116.374 54.32 117.214 54.1467 117.894 53.8C118.587 53.44 119.134 53.0333 119.534 52.58C119.947 52.1267 120.227 51.7467 120.374 51.44C120.654 50.8533 120.814 50.1733 120.854 49.4C120.907 48.6133 120.934 47.96 120.934 47.44L122.534 47.84C120.921 48.1067 119.614 48.3333 118.614 48.52C117.614 48.6933 116.807 48.8533 116.194 49C115.581 49.1467 115.041 49.3067 114.574 49.48C114.041 49.6933 113.607 49.9267 113.274 50.18C112.954 50.42 112.714 50.6867 112.554 50.98C112.407 51.2733 112.334 51.6 112.334 51.96C112.334 52.4533 112.454 52.88 112.694 53.24C112.947 53.5867 113.301 53.8533 113.754 54.04C114.207 54.2267 114.747 54.32 115.374 54.32ZM144.494 58C143.001 58.28 141.534 58.4 140.094 58.36C138.668 58.3333 137.388 58.0867 136.254 57.62C135.134 57.14 134.281 56.3733 133.694 55.32C133.161 54.3333 132.881 53.3333 132.854 52.32C132.828 51.2933 132.814 50.1333 132.814 48.84V30.4H138.254V48.52C138.254 49.36 138.261 50.12 138.274 50.8C138.301 51.4667 138.441 52 138.694 52.4C139.174 53.16 139.941 53.5733 140.994 53.64C142.048 53.7067 143.214 53.6533 144.494 53.48V58ZM129.134 40.6V36.4H144.494V40.6H129.134ZM149.308 58V36.4H154.108V41.68L153.588 41C153.868 40.2533 154.241 39.5733 154.708 38.96C155.174 38.3467 155.748 37.84 156.428 37.44C156.948 37.12 157.514 36.8733 158.128 36.7C158.741 36.5133 159.374 36.4 160.028 36.36C160.681 36.3067 161.334 36.32 161.988 36.4V41.48C161.388 41.2933 160.688 41.2333 159.888 41.3C159.101 41.3533 158.388 41.5333 157.748 41.84C157.108 42.1333 156.568 42.5267 156.128 43.02C155.688 43.5 155.354 44.0733 155.128 44.74C154.901 45.3933 154.788 46.1333 154.788 46.96V58H149.308ZM166.192 33.4V28.6H171.632V33.4H166.192ZM166.192 58V36.4H171.632V58H166.192ZM203.628 58V45.24C203.628 43.8133 203.288 42.7067 202.608 41.92C201.941 41.12 201.015 40.72 199.828 40.72C199.068 40.72 198.408 40.9 197.848 41.26C197.288 41.6067 196.848 42.1 196.528 42.74C196.221 43.3667 196.068 44.0933 196.068 44.92L193.788 43.4C193.788 41.92 194.135 40.6133 194.828 39.48C195.535 38.3467 196.475 37.4667 197.648 36.84C198.835 36.2 200.148 35.88 201.588 35.88C204.055 35.88 205.915 36.6133 207.168 38.08C208.435 39.5333 209.068 41.44 209.068 43.8V58H203.628ZM177.588 58V36.4H182.388V43.56H183.068V58H177.588ZM190.628 58V45.24C190.628 43.8133 190.288 42.7067 189.608 41.92C188.941 41.12 188.015 40.72 186.828 40.72C185.695 40.72 184.781 41.1133 184.088 41.9C183.408 42.6733 183.068 43.68 183.068 44.92L180.788 43.32C180.788 41.9067 181.141 40.64 181.848 39.52C182.555 38.4 183.501 37.5133 184.688 36.86C185.888 36.2067 187.228 35.88 188.708 35.88C190.401 35.88 191.788 36.24 192.868 36.96C193.961 37.68 194.768 38.64 195.288 39.84C195.808 41.04 196.068 42.36 196.068 43.8V58H190.628ZM223.598 58.6C221.425 58.6 219.518 58.1133 217.878 57.14C216.238 56.1667 214.958 54.8267 214.038 53.12C213.131 51.4 212.678 49.4267 212.678 47.2C212.678 44.9467 213.145 42.9667 214.078 41.26C215.011 39.54 216.298 38.2 217.938 37.24C219.578 36.28 221.465 35.8 223.598 35.8C225.771 35.8 227.678 36.2867 229.318 37.26C230.971 38.2333 232.258 39.58 233.178 41.3C234.098 43.0067 234.558 44.9733 234.558 47.2C234.558 49.44 234.091 51.42 233.158 53.14C232.238 54.8467 230.951 56.1867 229.298 57.16C227.658 58.12 225.758 58.6 223.598 58.6ZM223.598 53.52C225.345 53.52 226.645 52.9333 227.498 51.76C228.365 50.5733 228.798 49.0533 228.798 47.2C228.798 45.28 228.358 43.7467 227.478 42.6C226.611 41.4533 225.318 40.88 223.598 40.88C222.411 40.88 221.438 41.1467 220.678 41.68C219.918 42.2133 219.351 42.9533 218.978 43.9C218.618 44.8467 218.438 45.9467 218.438 47.2C218.438 49.1333 218.871 50.6733 219.738 51.82C220.618 52.9533 221.905 53.52 223.598 53.52ZM253.676 58V47.8C253.676 47.3067 253.65 46.68 253.596 45.92C253.543 45.1467 253.376 44.3733 253.096 43.6C252.816 42.8267 252.356 42.18 251.716 41.66C251.09 41.14 250.196 40.88 249.036 40.88C248.57 40.88 248.07 40.9533 247.536 41.1C247.003 41.2467 246.503 41.5333 246.036 41.96C245.57 42.3733 245.183 42.9867 244.876 43.8C244.583 44.6133 244.436 45.6933 244.436 47.04L241.316 45.56C241.316 43.8533 241.663 42.2533 242.356 40.76C243.05 39.2667 244.09 38.06 245.476 37.14C246.876 36.22 248.636 35.76 250.756 35.76C252.45 35.76 253.83 36.0467 254.896 36.62C255.963 37.1933 256.79 37.92 257.376 38.8C257.976 39.68 258.403 40.6 258.656 41.56C258.91 42.5067 259.063 43.3733 259.116 44.16C259.17 44.9467 259.196 45.52 259.196 45.88V58H253.676ZM238.916 58V36.4H243.756V43.56H244.436V58H238.916ZM266.365 67.6L270.525 56.16L270.605 59.52L261.205 36.4H266.845L273.165 52.76H271.885L278.165 36.4H283.605L271.405 67.6H266.365Z" fill="#FF8787"/>
<rect x="0.5" y="17.5" width="51" height="51" fill="#FF8787" stroke="#FF8787"/>
<path d="M0.787695 68V17.6H9.3277L25.9877 51.06L42.6477 17.6H51.1877V68H42.2977V37.9L27.6677 68H24.3077L9.6777 37.9V68H0.787695Z" fill="#FFE3E3"/>
<path d="M0.787695 68H-0.212305V69H0.787695V68ZM0.787695 17.6V16.6H-0.212305V17.6H0.787695ZM9.3277 17.6L10.2229 17.1543L9.94689 16.6H9.3277V17.6ZM25.9877 51.06L25.0925 51.5057L25.9877 53.3036L26.8829 51.5057L25.9877 51.06ZM42.6477 17.6V16.6H42.0285L41.7525 17.1543L42.6477 17.6ZM51.1877 17.6H52.1877V16.6H51.1877V17.6ZM51.1877 68V69H52.1877V68H51.1877ZM42.2977 68H41.2977V69H42.2977V68ZM42.2977 37.9H43.2977L41.3983 37.4629L42.2977 37.9ZM27.6677 68V69H28.2935L28.5671 68.4371L27.6677 68ZM24.3077 68L23.4083 68.4371L23.6819 69H24.3077V68ZM9.6777 37.9L10.5771 37.4629L8.6777 37.9H9.6777ZM9.6777 68V69H10.6777V68H9.6777ZM1.7877 68V17.6H-0.212305V68H1.7877ZM0.787695 18.6H9.3277V16.6H0.787695V18.6ZM8.43252 18.0457L25.0925 51.5057L26.8829 50.6143L10.2229 17.1543L8.43252 18.0457ZM26.8829 51.5057L43.5429 18.0457L41.7525 17.1543L25.0925 50.6143L26.8829 51.5057ZM42.6477 18.6H51.1877V16.6H42.6477V18.6ZM50.1877 17.6V68H52.1877V17.6H50.1877ZM51.1877 67H42.2977V69H51.1877V67ZM43.2977 68V37.9H41.2977V68H43.2977ZM41.3983 37.4629L26.7683 67.5629L28.5671 68.4371L43.1971 38.3371L41.3983 37.4629ZM27.6677 67H24.3077V69H27.6677V67ZM25.2071 67.5629L10.5771 37.4629L8.77831 38.3371L23.4083 68.4371L25.2071 67.5629ZM8.6777 37.9V68H10.6777V37.9H8.6777ZM9.6777 67H0.787695V69H9.6777V67Z" fill="#FF8787"/>
</svg>
